# xmcd
#
# Track frame offsets:
# 150
# 13814
# 27280
# 32107
# 51735
# 68001
# 83921
# 102911
#
# Disc length: 1621 seconds
#
#
# Revision: 0
# Processed by: cddbd v1.5.1PL0 Copyright (c) Steve Scherf et al.
# Submitted via: FreeRIP 2.931 
#
DISCID=67065308
DTITLE=Mr. Olzen - One Man Blues Band
DYEAR=2003
DGENRE=Blues
TTITLE0=Rollin and Thumblin
TTITLE1=Mercury Blues
TTITLE2=Interlude
TTITLE3=Kiss of my Life
TTITLE4=You mess up my life
TTITLE5=Mojo workin
TTITLE6=Everything I do
TTITLE7=Ain´t more Whiskey
EXTD=
EXTT0=
EXTT1=
EXTT2=
EXTT3=
EXTT4=
EXTT5=
EXTT6=
EXTT7=
PLAYORDER=
